<svg width="900" height="383" viewBox="0 0 900 383" fill="none" xmlns="http://www.w3.org/2000/svg">
<rect width="900" height="383" fill="#0F172A"/>
<path d="M0 0L900 0V383H0V0Z" fill="url(#paint0_radial_1)"/>
<!-- Decorative Grid -->
<path d="M0 191.5 H900 M450 0 V383" stroke="#1E293B" stroke-width="2" stroke-dasharray="20 20"/>

<!-- Root Node -->
<g filter="url(#glow)">
    <rect x="100" y="166" width="140" height="50" rx="8" fill="#3B82F6" stroke="#60A5FA" stroke-width="2"/>
    <rect x="100" y="210" width="140" height="6" rx="0" fill="#1E3A8A"/>
    <rect x="100" y="210" width="140" height="6" rx="0" fill="#93C5FD"/>
</g>

<!-- Connections -->
<path d="M240 191 C 320 191, 320 100, 400 100" stroke="#64748B" stroke-width="2" fill="none"/>
<path d="M240 191 C 320 191, 320 282, 400 282" stroke="#64748B" stroke-width="2" fill="none"/>

<!-- Child Node 1 -->
<g filter="url(#glow)">
    <rect x="400" y="75" width="140" height="50" rx="8" fill="#1E293B" stroke="#334155" stroke-width="2"/>
    <rect x="400" y="119" width="140" height="6" rx="0" fill="#0F172A"/>
    <rect x="400" y="119" width="100" height="6" rx="0" fill="#3B82F6"/>
</g>

<!-- Child Node 2 -->
<g filter="url(#glow)">
    <rect x="400" y="257" width="140" height="50" rx="8" fill="#1E293B" stroke="#334155" stroke-width="2"/>
    <rect x="400" y="301" width="140" height="6" rx="0" fill="#0F172A"/>
    <rect x="400" y="301" width="60" height="6" rx="0" fill="#3B82F6"/>
</g>

<!-- Text -->
<text x="650" y="180" font-family="'Segoe UI', sans-serif" font-size="48" fill="white" font-weight="bold">PowerBI超级逻辑树</text>
<text x="650" y="220" font-family="'Microsoft YaHei', sans-serif" font-size="24" fill="#94A3B8" font-weight="300">带 KPI 的层级分析</text>

<defs>
<radialGradient id="paint0_radial_1" cx="0" cy="0" r="1" gradientUnits="userSpaceOnUse" gradientTransform="translate(450 191.5) rotate(90) scale(300 600)">
<stop stop-color="#1E293B" stop-opacity="0"/>
<stop offset="1" stop-color="#020617"/>
</radialGradient>
<filter id="glow" x="-20%" y="-20%" width="140%" height="140%">
    <feGaussianBlur stdDeviation="4" result="coloredBlur"/>
    <feMerge>
        <feMergeNode in="coloredBlur"/>
        <feMergeNode in="SourceGraphic"/>
    </feMerge>
</filter>
</defs>
</svg>
