<svg xmlns:xlink="http://www.w3.org/1999/xlink" data-v-0dd9719b="" version="1.1" xmlns="http://www.w3.org/2000/svg" xlink="http://www.w3.org/1999/xlink" width="749" height="551" viewBox="0 0 340.000000 250.000000" preserveAspectRatio="xMidYMid meet" color-interpolation-filters="sRGB" style="margin: auto;" xmlns:svgjs="http://svgjs.com/svgjs">
  <!-- 移除了原有的 fill-opacity="0" 的背景矩形 -->
  <rect width="100%" height="100%" fill="white"/>
  <g data-v-0dd9719b="" class="iconmbgsvg" transform="translate(91.0710220336914,75.26686096191406)">
    <g fill="#333333" hollow-target="text">
      <g mask="url(#161d5265-c595-4416-b587-7b0b1c4c4510)" opacity="1" transform="matrix(1,0,0,1,0,0)" fill="#333333">
        <g fill="#333333">
          <rect fill="#333333" fill-opacity="0" stroke-width="2px" x="0" y="0" width="102.5" height="99.46627850557982" class="image-rect"></rect>
          <svg x="0" y="0" width="102.5" height="99.46627850557982" filtersec="colorsb4711310038" class="image-svg-svg primary" style="overflow: visible;" fill="#333333">
            <svg xmlns="http://www.w3.org/2000/svg" viewBox="0 0 277.739990234375 269.5199890136719" fill="#333333">
              <title>资源 21</title>
              <circle cx="119.15" cy="150.37" r="119.15" fill="#7ED8FF" opacity=".6"></circle>
              <circle cx="158.59" cy="129" r="119.15" fill="#805FF3" opacity=".6"></circle>
              <circle cx="119.15" cy="119.15" r="119.15" fill="#FD9A96" opacity=".6"></circle>
            </svg>
          </svg>
          <!---->
        </g>
      </g>
      <g transform="translate(38.64204406738281,27.87126350402832)" fill="#333333">
        <g data-gra="path-name" fill-rule="" class="tp-name" transform="matrix(1,0,0,1,0,0)" opacity="1" fill="#333333">
          <g transform="scale(1)" fill="#333333">
            <g fill="#333333">
              <path d="M17.15-34.64L17.15-34.64 6.17-34.64Q5.44-34.64 4.95-35.16 4.46-35.67 4.46-36.41L4.46-36.41Q4.46-37.09 4.95-37.61 5.44-38.12 6.17-38.12L6.17-38.12 34.01-38.12Q34.74-38.12 35.26-37.61 35.77-37.09 35.77-36.41L35.77-36.41Q35.77-35.67 35.26-35.16 34.74-34.64 34.01-34.64L34.01-34.64 20.82-34.64Q18.67-28.18 14.58-22.56 10.49-16.95 5.49-12.84L5.49-12.84Q4.9-12.35 4.21-12.42 3.53-12.5 3.04-13.03L3.04-13.03Q2.6-13.62 2.67-14.31 2.74-14.99 3.28-15.53L3.28-15.53Q7.74-19.16 11.42-24.08 15.09-29.01 17.15-34.64ZM21.61-25.58L21.61-25.58 21.61 2.3Q21.61 3.04 21.09 3.55 20.58 4.07 19.85 4.07L19.85 4.07Q19.16 4.07 18.64 3.55 18.13 3.04 18.13 2.3L18.13 2.3 18.13-25.58Q18.13-26.26 18.64-26.78 19.16-27.29 19.85-27.29L19.85-27.29Q20.58-27.29 21.09-26.78 21.61-26.26 21.61-25.58ZM34.01-13.03L34.01-13.03 24.7-24.7Q24.21-25.28 24.3-25.97 24.4-26.66 24.99-27.15L24.99-27.15Q25.58-27.59 26.24-27.51 26.9-27.44 27.39-26.85L27.39-26.85 36.7-15.24Q37.14-14.65 37.04-13.99 36.95-13.33 36.41-12.84L36.41-12.84Q35.82-12.35 35.16-12.42 34.5-12.5 34.01-13.03ZM78.74 3.14L78.74 3.14 46.21 3.14Q45.47 3.14 44.96 2.62 44.44 2.11 44.44 1.37L44.44 1.37Q44.44 0.69 44.96 0.17 45.47-0.34 46.21-0.34L46.21-0.34 51.55-0.34 51.55-30.63Q51.55-31.31 52.06-31.85 52.58-32.39 53.26-32.39L53.26-32.39Q54-32.39 54.51-31.85 55.03-31.31 55.03-30.63L55.03-30.63 55.03-0.34 63.55-0.34 63.55-39.4Q63.55-40.13 64.07-40.65 64.58-41.16 65.32-41.16L65.32-41.16Q66-41.16 66.52-40.65 67.03-40.13 67.03-39.4L67.03-39.4 67.03-27.73 76.29-27.73Q77.03-27.73 77.54-27.2 78.06-26.66 78.06-25.97L78.06-25.97Q78.06-25.23 77.54-24.72 77.03-24.21 76.29-24.21L76.29-24.21 67.03-24.21 67.03-0.34 78.74-0.34Q79.43-0.34 79.97 0.17 80.51 0.69 80.51 1.37L80.51 1.37Q80.51 2.11 79.97 2.62 79.43 3.14 78.74 3.14ZM88.05 3.53L88.05 3.53 88.05 3.58Q87.95 4.26 87.47 4.68 86.97 5.1 86.24 5.1L86.24 5.1Q85.5 5 85.09 4.48 84.67 3.97 84.72 3.23L84.72 3.23 88.74-35.43Q88.98-36.6 90.06-36.9L90.06-36.9Q95.06-38.22 99.45-37.58 103.83-36.95 105.99-34.99L105.99-34.99Q108.29-32.83 108.58-29.84L108.58-29.84Q108.88-26.9 106.97-24.11L106.97-24.11Q105.55-22.05 102.16-20.53L102.16-20.53Q106.82-18.96 108.98-16.17L108.98-16.17Q111.47-13.03 111.23-9.41L111.23-9.41Q111.08-5.83 108.53-2.7L108.53-2.7Q105.89 0.49 100.62 2.3 95.35 4.12 88.05 3.53ZM90.36-18.23L90.36-18.23 88.4 0.2Q94.77 0.73 99.27-0.73 103.78-2.21 105.94-4.85L105.94-4.85Q107.75-7.11 107.9-9.55L107.9-9.55Q108-11.96 106.33-14.06L106.33-14.06Q103.34-17.89 94.23-18.42L94.23-18.42Q92.36-18.23 90.36-18.23ZM104.22-26.07L104.22-26.07Q105.4-27.83 105.2-29.5L105.2-29.5Q105.06-31.26 103.73-32.54L103.73-32.54Q102.21-33.81 98.91-34.25 95.6-34.69 91.97-33.91L91.97-33.91 90.7-21.76Q92.56-21.9 94.23-21.85L94.23-21.85Q101.72-22.93 104.22-26.07ZM121.86-32.29L121.86-32.29 119.31 2.25Q119.27 2.99 118.75 3.45 118.24 3.92 117.5 3.87L117.5 3.87Q116.77 3.82 116.3 3.31 115.84 2.79 115.84 2.06L115.84 2.06 118.38-32.54Q118.48-33.37 118.04-33.96L118.04-33.96Q117.7-34.4 116.62-34.64L116.62-34.64Q115.93-34.79 115.54-35.35 115.15-35.92 115.25-36.65L115.25-36.65Q115.39-37.39 115.96-37.78 116.52-38.17 117.26-38.02L117.26-38.02Q119.61-37.53 120.78-36.11L120.78-36.11Q122.01-34.45 121.86-32.29Z" transform="translate(-2.6603922843933105, 41.15999984741211)" fill="#333333"></path>
            </g>
            <!---->
            <!---->
            <!---->
            <!---->
            <!---->
            <!---->
            <!---->
          </g>
        </g>
        <g data-gra="path-slogan" fill-rule="" class="tp-slogan" fill="#333333" transform="matrix(1,0,0,1,55.99795722961426,52.2599983215332)" opacity="1">
          <!---->
          <!---->
          <g transform="scale(1, 1)" fill="#333333">
            <g transform="scale(1)" fill="#333333">
              <path d="M1.91-7.15L5.51-1.37L5.51-7.15L6.45-7.15L6.45 0L5.35 0L1.72-5.78L1.68-5.78L1.68 0L0.74 0L0.74-7.15L1.91-7.15ZM13.59-3.55L13.59-3.55Q13.44-6.37 11.09-6.52L11.09-6.52Q8.71-6.41 8.59-3.55L8.59-3.55Q8.71-0.78 11.09-0.66L11.09-0.66Q13.44-0.82 13.59-3.55ZM14.57-3.55L14.57-3.55Q14.34 0 11.09 0.12L11.09 0.12Q7.81 0 7.58-3.55L7.58-3.55Q7.77-7.27 11.09-7.34L11.09-7.34Q14.34-7.23 14.57-3.55ZM17.54-6.33L15.12-6.33L15.12-7.15L20.90-7.15L20.90-6.33L18.48-6.33L18.48 0L17.54 0L17.54-6.33ZM23.95-1.60L23.95-2.30L24.84-2.30L24.84-1.80Q24.84-0.63 25.94-0.63L25.94-0.63Q27.07-0.63 27.07-1.88L27.07-1.88L27.07-7.15L28.05-7.15L28.05-1.91Q28.01 0.08 25.98 0.12L25.98 0.12Q24.06 0.08 23.95-1.60L23.95-1.60ZM34.26-2.66L34.26-7.15L35.23-7.15L35.23-2.54Q35.12 0.04 32.30 0.12L32.30 0.12Q29.69 0.04 29.57-2.38L29.57-2.38L29.57-7.15L30.55-7.15L30.55-2.66Q30.59-0.70 32.34-0.66L32.34-0.66Q34.26-0.70 34.26-2.66L34.26-2.66ZM41.95-5.08L41.95-5.08L41.05-5.08Q40.98-6.45 39.26-6.52L39.26-6.52Q37.66-6.48 37.66-5.27L37.66-5.27Q37.66-4.49 38.52-4.38L38.52-4.38L40.55-3.91Q42.15-3.52 42.15-1.95L42.15-1.95Q42.11 0.04 39.34 0.12L39.34 0.12Q37.81 0.12 37.19-0.51L37.19-0.51Q36.41-1.09 36.45-2.30L36.45-2.30L37.38-2.30Q37.42-0.66 39.34-0.63L39.34-0.63Q41.21-0.66 41.25-1.84L41.25-1.84Q41.41-2.81 39.69-3.13L39.69-3.13L38.20-3.44Q36.68-3.87 36.68-5.16L36.68-5.16Q36.80-7.27 39.18-7.34L39.18-7.34Q41.88-7.34 41.95-5.08ZM45.20-6.33L42.77-6.33L42.77-7.15L48.55-7.15L48.55-6.33L46.13-6.33L46.13 0L45.20 0L45.20-6.33ZM54.88-6.37L53.16-6.37L53.16-4.14L54.88-4.14Q56.41-4.10 56.37-5.31L56.37-5.31Q56.37-6.37 54.88-6.37L54.88-6.37ZM55.27 0L52.19 0L52.19-7.15L55.35-7.15Q57.27-7.07 57.34-5.35L57.34-5.35Q57.34-4.30 56.41-3.87L56.41-3.87Q57.73-3.40 57.73-2.11L57.73-2.11Q57.62-0.08 55.27 0L55.27 0ZM55.04-3.32L53.16-3.32L53.16-0.82L55.23-0.82Q56.72-0.86 56.76-2.11L56.76-2.11Q56.76-3.32 55.04-3.32L55.04-3.32ZM58.98-7.15L59.96-7.15L59.96 0L58.98 0L58.98-7.15Z" transform="translate(-0.7421875, 7.34375)" fill="#333333"></path>
            </g>
          </g>
        </g>
      </g>
    </g>
  </g>
  <mask id="161d5265-c595-4416-b587-7b0b1c4c4510">
    <g fill="#FFFFFF">
      <g fill="#FFFFFF">
        <rect fill-opacity="1" stroke-width="2px" x="0" y="0" width="102.5" height="99.46627850557982" class="image-rect" fill="#FFFFFF"></rect>
        <svg x="0" y="0" width="102.5" height="99.46627850557982" filtersec="colorsb4711310038" class="image-svg-svg primary" style="overflow: visible;" fill="#FFFFFF">
          <svg xmlns="http://www.w3.org/2000/svg" viewBox="0 0 277.739990234375 269.5199890136719" fill="#FFFFFF">
            <title>资源 21</title>
            <circle cx="119.15" cy="150.37" r="119.15" opacity=".6" fill="#FFFFFF"></circle>
            <circle cx="158.59" cy="129" r="119.15" opacity=".6" fill="#FFFFFF"></circle>
            <circle cx="119.15" cy="119.15" r="119.15" opacity=".6" fill="#FFFFFF"></circle>
          </svg>
        </svg>
      </g>
    </g>
    <g transform="translate(38.64204406738281,27.87126350402832)" fill="black" stroke="#000000" stroke-width="6px" stroke-linejoin="round">
      <g data-gra="path-name" fill-rule="" class="tp-name" transform="matrix(1,0,0,1,0,0)" opacity="1" stroke="#000000" stroke-width="6px">
        <g transform="scale(1)" stroke="#000000" stroke-width="6px">
          <g stroke="#000000" stroke-width="6px">
            <path d="M17.15-34.64L17.15-34.64 6.17-34.64Q5.44-34.64 4.95-35.16 4.46-35.67 4.46-36.41L4.46-36.41Q4.46-37.09 4.95-37.61 5.44-38.12 6.17-38.12L6.17-38.12 34.01-38.12Q34.74-38.12 35.26-37.61 35.77-37.09 35.77-36.41L35.77-36.41Q35.77-35.67 35.26-35.16 34.74-34.64 34.01-34.64L34.01-34.64 20.82-34.64Q18.67-28.18 14.58-22.56 10.49-16.95 5.49-12.84L5.49-12.84Q4.9-12.35 4.21-12.42 3.53-12.5 3.04-13.03L3.04-13.03Q2.6-13.62 2.67-14.31 2.74-14.99 3.28-15.53L3.28-15.53Q7.74-19.16 11.42-24.08 15.09-29.01 17.15-34.64ZM21.61-25.58L21.61-25.58 21.61 2.3Q21.61 3.04 21.09 3.55 20.58 4.07 19.85 4.07L19.85 4.07Q19.16 4.07 18.64 3.55 18.13 3.04 18.13 2.3L18.13 2.3 18.13-25.58Q18.13-26.26 18.64-26.78 19.16-27.29 19.85-27.29L19.85-27.29Q20.58-27.29 21.09-26.78 21.61-26.26 21.61-25.58ZM34.01-13.03L34.01-13.03 24.7-24.7Q24.21-25.28 24.3-25.97 24.4-26.66 24.99-27.15L24.99-27.15Q25.58-27.59 26.24-27.51 26.9-27.44 27.39-26.85L27.39-26.85 36.7-15.24Q37.14-14.65 37.04-13.99 36.95-13.33 36.41-12.84L36.41-12.84Q35.82-12.35 35.16-12.42 34.5-12.5 34.01-13.03ZM78.74 3.14L78.74 3.14 46.21 3.14Q45.47 3.14 44.96 2.62 44.44 2.11 44.44 1.37L44.44 1.37Q44.44 0.69 44.96 0.17 45.47-0.34 46.21-0.34L46.21-0.34 51.55-0.34 51.55-30.63Q51.55-31.31 52.06-31.85 52.58-32.39 53.26-32.39L53.26-32.39Q54-32.39 54.51-31.85 55.03-31.31 55.03-30.63L55.03-30.63 55.03-0.34 63.55-0.34 63.55-39.4Q63.55-40.13 64.07-40.65 64.58-41.16 65.32-41.16L65.32-41.16Q66-41.16 66.52-40.65 67.03-40.13 67.03-39.4L67.03-39.4 67.03-27.73 76.29-27.73Q77.03-27.73 77.54-27.2 78.06-26.66 78.06-25.97L78.06-25.97Q78.06-25.23 77.54-24.72 77.03-24.21 76.29-24.21L76.29-24.21 67.03-24.21 67.03-0.34 78.74-0.34Q79.43-0.34 79.97 0.17 80.51 0.69 80.51 1.37L80.51 1.37Q80.51 2.11 79.97 2.62 79.43 3.14 78.74 3.14ZM88.05 3.53L88.05 3.53 88.05 3.58Q87.95 4.26 87.47 4.68 86.97 5.1 86.24 5.1L86.24 5.1Q85.5 5 85.09 4.48 84.67 3.97 84.72 3.23L84.72 3.23 88.74-35.43Q88.98-36.6 90.06-36.9L90.06-36.9Q95.06-38.22 99.45-37.58 103.83-36.95 105.99-34.99L105.99-34.99Q108.29-32.83 108.58-29.84L108.58-29.84Q108.88-26.9 106.97-24.11L106.97-24.11Q105.55-22.05 102.16-20.53L102.16-20.53Q106.82-18.96 108.98-16.17L108.98-16.17Q111.47-13.03 111.23-9.41L111.23-9.41Q111.08-5.83 108.53-2.7L108.53-2.7Q105.89 0.49 100.62 2.3 95.35 4.12 88.05 3.53ZM90.36-18.23L90.36-18.23 88.4 0.2Q94.77 0.73 99.27-0.73 103.78-2.21 105.94-4.85L105.94-4.85Q107.75-7.11 107.9-9.55L107.9-9.55Q108-11.96 106.33-14.06L106.33-14.06Q103.34-17.89 94.23-18.42L94.23-18.42Q92.36-18.23 90.36-18.23ZM104.22-26.07L104.22-26.07Q105.4-27.83 105.2-29.5L105.2-29.5Q105.06-31.26 103.73-32.54L103.73-32.54Q102.21-33.81 98.91-34.25 95.6-34.69 91.97-33.91L91.97-33.91 90.7-21.76Q92.56-21.9 94.23-21.85L94.23-21.85Q101.72-22.93 104.22-26.07ZM121.86-32.29L121.86-32.29 119.31 2.25Q119.27 2.99 118.75 3.45 118.24 3.92 117.5 3.87L117.5 3.87Q116.77 3.82 116.3 3.31 115.84 2.79 115.84 2.06L115.84 2.06 118.38-32.54Q118.48-33.37 118.04-33.96L118.04-33.96Q117.7-34.4 116.62-34.64L116.62-34.64Q115.93-34.79 115.54-35.35 115.15-35.92 115.25-36.65L115.25-36.65Q115.39-37.39 115.96-37.78 116.52-38.17 117.26-38.02L117.26-38.02Q119.61-37.53 120.78-36.11L120.78-36.11Q122.01-34.45 121.86-32.29Z" transform="translate(-2.6603922843933105, 41.15999984741211)" stroke="#000000" stroke-width="6px"></path>
          </g>
        </g>
      </g>
      <g data-gra="path-slogan" fill-rule="" class="tp-slogan" transform="matrix(1,0,0,1,55.99795722961426,52.2599983215332)" fill="#FFFFFF" opacity="1" stroke="#000000" stroke-width="6px">
        <g transform="scale(1, 1)" stroke="#000000" fill="#FFFFFF" stroke-width="6px">
          <g transform="scale(1)" stroke="#000000" fill="#FFFFFF" stroke-width="6px">
            <path d="M1.91-7.15L5.51-1.37L5.51-7.15L6.45-7.15L6.45 0L5.35 0L1.72-5.78L1.68-5.78L1.68 0L0.74 0L0.74-7.15L1.91-7.15ZM13.59-3.55L13.59-3.55Q13.44-6.37 11.09-6.52L11.09-6.52Q8.71-6.41 8.59-3.55L8.59-3.55Q8.71-0.78 11.09-0.66L11.09-0.66Q13.44-0.82 13.59-3.55ZM14.57-3.55L14.57-3.55Q14.34 0 11.09 0.12L11.09 0.12Q7.81 0 7.58-3.55L7.58-3.55Q7.77-7.27 11.09-7.34L11.09-7.34Q14.34-7.23 14.57-3.55ZM17.54-6.33L15.12-6.33L15.12-7.15L20.90-7.15L20.90-6.33L18.48-6.33L18.48 0L17.54 0L17.54-6.33ZM23.95-1.60L23.95-2.30L24.84-2.30L24.84-1.80Q24.84-0.63 25.94-0.63L25.94-0.63Q27.07-0.63 27.07-1.88L27.07-1.88L27.07-7.15L28.05-7.15L28.05-1.91Q28.01 0.08 25.98 0.12L25.98 0.12Q24.06 0.08 23.95-1.60L23.95-1.60ZM34.26-2.66L34.26-7.15L35.23-7.15L35.23-2.54Q35.12 0.04 32.30 0.12L32.30 0.12Q29.69 0.04 29.57-2.38L29.57-2.38L29.57-7.15L30.55-7.15L30.55-2.66Q30.59-0.70 32.34-0.66L32.34-0.66Q34.26-0.70 34.26-2.66L34.26-2.66ZM41.95-5.08L41.95-5.08L41.05-5.08Q40.98-6.45 39.26-6.52L39.26-6.52Q37.66-6.48 37.66-5.27L37.66-5.27Q37.66-4.49 38.52-4.38L38.52-4.38L40.55-3.91Q42.15-3.52 42.15-1.95L42.15-1.95Q42.11 0.04 39.34 0.12L39.34 0.12Q37.81 0.12 37.19-0.51L37.19-0.51Q36.41-1.09 36.45-2.30L36.45-2.30L37.38-2.30Q37.42-0.66 39.34-0.63L39.34-0.63Q41.21-0.66 41.25-1.84L41.25-1.84Q41.41-2.81 39.69-3.13L39.69-3.13L38.20-3.44Q36.68-3.87 36.68-5.16L36.68-5.16Q36.80-7.27 39.18-7.34L39.18-7.34Q41.88-7.34 41.95-5.08ZM45.20-6.33L42.77-6.33L42.77-7.15L48.55-7.15L48.55-6.33L46.13-6.33L46.13 0L45.20 0L45.20-6.33ZM54.88-6.37L53.16-6.37L53.16-4.14L54.88-4.14Q56.41-4.10 56.37-5.31L56.37-5.31Q56.37-6.37 54.88-6.37L54.88-6.37ZM55.27 0L52.19 0L52.19-7.15L55.35-7.15Q57.27-7.07 57.34-5.35L57.34-5.35Q57.34-4.30 56.41-3.87L56.41-3.87Q57.73-3.40 57.73-2.11L57.73-2.11Q57.62-0.08 55.27 0L55.27 0ZM55.04-3.32L53.16-3.32L53.16-0.82L55.23-0.82Q56.72-0.86 56.76-2.11L56.76-2.11Q56.76-3.32 55.04-3.32L55.04-3.32ZM58.98-7.15L59.96-7.15L59.96 0L58.98 0L58.98-7.15Z" transform="translate(-0.7421875, 7.34375)" stroke="#000000" fill="#FFFFFF" stroke-width="6px"></path>
          </g>
        </g>
      </g>
    </g>
  </mask>
  <defs v-gra="od"></defs>
</svg>