<svg width="900" height="383" viewBox="0 0 900 383" xmlns="http://www.w3.org/2000/svg" xmlns:xlink="http://www.w3.org/1999/xlink" style="font-family: 'SF Pro Display', -apple-system, BlinkMacSystemFont, 'Segoe UI', Roboto, 'Helvetica Neue', Arial, 'Noto Sans', sans-serif;">
    <defs>
        <radialGradient id="china-bg" cx="50%" cy="50%" r="70%">
            <stop offset="0%" stop-color="#2c3e50" />
            <stop offset="100%" stop-color="#1a2533" />
        </radialGradient>
        <filter id="china-glow" x="-50%" y="-50%" width="200%" height="200%">
            <feGaussianBlur in="SourceGraphic" stdDeviation="8" result="blur"/>
            <feFlood flood-color="#e11d48" result="glowColor"/>
            <feComposite in="glowColor" in2="blur" operator="in" result="softGlow_colored"/>
            <feMerge>
                <feMergeNode in="softGlow_colored"/>
                <feMergeNode in="SourceGraphic"/>
            </feMerge>
        </filter>
        <linearGradient id="bridge-grad-cn" x1="0%" y1="0%" x2="100%" y2="0%">
            <stop offset="0%" stop-color="#3776AB" />
            <stop offset="40%" stop-color="#60a5fa" />
            <stop offset="60%" stop-color="#fcd34d" />
            <stop offset="100%" stop-color="#F2C811" />
        </linearGradient>
    </defs>

    <!-- Background -->
    <rect width="900" height="383" fill="url(#china-bg)" />

    <!-- China Map Element -->
    <g transform="translate(450, 200) scale(0.6)" fill="#e11d48" fill-opacity="0.2" filter="url(#china-glow)">
        <path d="M532.8,241.4c-2.8-1.7-5.5-3.6-7.8-5.9c-1.3-1.3-2.6-2.8-3.7-4.4c-0.1,0-0.2-0.1-0.2-0.1c-2.3-3.2-4.5-6.6-6-10.2 c-1.3-3-2.2-6.2-2.2-9.4c0-0.4,0-0.8,0.1-1.2c0.2-2.1,0.8-4.1,1.8-6c0.6-1.1,1.3-2.2,2-3.3c0.7-1,1.5-2,2.3-2.9 c0.8-0.9,1.7-1.8,2.6-2.6c2.8-2.4,5.8-4.5,9-6.3c1.5-0.9,3-1.6,4.5-2.4c1.6-0.8,3.2-1.5,4.8-2.1c3.9-1.4,7.9-2.2,12-2.2 c2.6,0,5.2,0.3,7.7,0.8c2.6,0.5,5.2,1.3,7.6,2.3c3.6,1.5,6.9,3.5,9.8,5.9c1,0.8,1.9,1.7,2.8,2.6c0.9,0.9,1.8,1.9,2.6,2.9 c1.7,2.1,3.1,4.5,4.1,7.1c0.5,1.4,1,2.9,1.3,4.4c0.3,1.5,0.4,3,0.4,4.5c0,4.2-1.1,8.3-3.1,11.9c-1.1,1.9-2.4,3.7-3.9,5.4 c-1.5,1.7-3.2,3.2-5,4.6c-1.8,1.4-3.8,2.7-5.8,3.8c-2,1.1-4.1,2-6.2,2.8c-2.2,0.8-4.3,1.4-6.6,1.8c-2.2,0.4-4.5,0.6-6.8,0.6 C541.2,243.8,537,243,532.8,241.4z M528.2,221c-0.1-0.1-0.1-0.2-0.2-0.3c-0.4-0.6-0.8-1.2-1.2-1.8c-0.8-1.2-1.5-2.5-2.1-3.9 c-0.6-1.4-1.1-2.9-1.4-4.4c-0.3-1.5-0.5-3.1-0.5-4.7c0-3.3,0.9-6.6,2.5-9.4c0.8-1.4,1.8-2.8,2.9-4c1.1-1.2,2.4-2.3,3.8-3.3 c2.7-1.9,5.7-3.3,8.8-4.3c2.9-0.9,6-1.4,9-1.4c2.8,0,5.6,0.4,8.2,1.1c2.6,0.7,5.1,1.8,7.4,3.1c3.5,2,6.6,4.5,9,7.4 c1.3,1.5,2.4,3.2,3.4,5c0.9,1.8,1.7,3.7,2.2,5.7c0.5,2,0.8,4.1,0.8,6.2c0,3.9-1,7.6-2.9,10.9c-1,1.7-2.2,3.3-3.5,4.8 c-1.4,1.5-2.9,2.9-4.5,4.1c-1.6,1.2-3.4,2.3-5.2,3.2c-1.9,0.9-3.8,1.7-5.8,2.3c-2,0.6-4.1,1-6.2,1.2c-2.1,0.2-4.2,0.3-6.3,0.3 c-3.8,0-7.5-0.7-11-2C533.6,225.9,530.7,223.8,528.2,221z"/>
    </g>

    <!-- Central Title -->
    <text x="450" y="80" font-size="64" font-weight="900" text-anchor="middle" fill="#f1f5f9">pbipy 中国区特别篇</text>
    <text x="450" y="125" font-size="24" text-anchor="middle" fill="#94a3b8">解锁世纪互联自动化运维</text>

    <!-- Logos and Bridge (same as before for consistency) -->
    <g transform="translate(180, 230)">
        <path d="M-30,-50 A30,30 0 0,1 0,-80 A30,30 0 0,1 30,-50 L30,-35 L10,-35 L10,-50 A10,10 0 0,0 0,-60 A10,10 0 0,0 -10,-50 L-10,10 L10,10 L10,25 L-30,25 Z" fill="#3776AB"/>
        <path d="M30,50 A30,30 0 0,1 0,80 A30,30 0 0,1 -30,50 L-30,35 L-10,35 L-10,50 A10,10 0 0,0 0,60 A10,10 0 0,0 10,50 L10,-10 L-10,-10 L-10,-25 L30,-25 Z" fill="#FFD43B"/>
    </g>
    <g transform="translate(720, 230)">
        <path d="M-40 -40 L-40 40 L-25 40 L-25 -5 C-25 -20 0 -20 0 -20 C20 -20 20 -30 20 -40 Z M-15 0 L-15 40 L0 40 L0 0 Z M10 0 L10 40 L25 40 L25 0 Z M35 -40 L35 40 L50 40 L50 -40 Z" fill="#F2C811" />
    </g>
    <path d="M 250 230 C 350 180, 550 180, 650 230" stroke="url(#bridge-grad-cn)" stroke-width="6" fill="none" stroke-linecap="round"/>
    <text x="450" y="235" font-size="18" fill="#fff" text-anchor="middle">REST API</text>
</svg>