<svg width="21" height="21" viewBox="0 0 21 21" fill="none" xmlns="http://www.w3.org/2000/svg">
<path d="M12.6213 7.31802C12.9142 7.02512 13.3891 7.02512 13.682 7.31802C13.9749 7.61092 13.9749 8.08578 13.682 8.37868L11.5607 10.5L13.682 12.6213C13.9749 12.9142 13.9749 13.3891 13.682 13.682C13.3891 13.9749 12.9142 13.9749 12.6213 13.682L10.5 11.5607L8.37868 13.682C8.08578 13.9749 7.61092 13.9749 7.31802 13.682C7.02512 13.3891 7.02512 12.9142 7.31802 12.6213L9.43934 10.5L7.31802 8.37868C7.02512 8.08578 7.02512 7.61092 7.31802 7.31802C7.61092 7.02512 8.08578 7.02512 8.37868 7.31802L10.5 9.43934L12.6213 7.31802ZM17.9246 17.9246C13.8241 22.0251 7.17589 22.0251 3.07538 17.9246C-1.02512 13.8241 -1.02513 7.17589 3.07538 3.07538C7.17589 -1.02513 13.8241 -1.02513 17.9246 3.07538C22.0251 7.17589 22.0251 13.8241 17.9246 17.9246ZM16.864 16.864C20.3787 13.3492 20.3787 7.65075 16.864 4.13604C13.3492 0.62132 7.65076 0.62132 4.13604 4.13604C0.621333 7.65075 0.621322 13.3492 4.13604 16.864C7.65075 20.3787 13.3493 20.3787 16.864 16.864Z" fill="#201F1E"/>
</svg>
